<svg xmlns="http://www.w3.org/2000/svg" xmlns:xlink="http://www.w3.org/1999/xlink" version="1.1" x="0px" y="0px" viewBox="0 0 100 125" style="enable-background:new 0 0 100 100;" xml:space="preserve"><style type="text/css">
	.st0{fill:none;}
	.st1{fill:#FFFFFF;}
</style><path class="st0" d="M60.7,7.6c-22.3-6-45,8.5-50.6,32.3C4.5,63.7,18,87.8,40.4,93.8c22.3,6,45-8.5,50.6-32.3  C96.6,37.7,83,13.6,60.7,7.6z M49.9,92.4c-21.8,0-39.4-18.7-39.4-41.7C10.5,27.7,28.1,9,49.9,9s39.4,18.7,39.4,41.7  C89.3,73.7,71.6,92.4,49.9,92.4z"/><path d="M61.8,6.6C38.6,0.4,15.1,15.3,9.3,39.9c-5.8,24.5,8.3,49.4,31.4,55.6c23.2,6.2,46.7-8.7,52.5-33.3C99,37.7,85,12.8,61.8,6.6  z M91,61.5c-5.6,23.8-28.3,38.3-50.6,32.3C18,87.8,4.5,63.7,10.1,39.9C15.7,16.1,38.4,1.6,60.7,7.6S96.6,37.7,91,61.5z"/><path d="M27.4,64.3l9.1-4.4l-0.1-0.7l-7.3-1.6c-0.3,0.4-0.7,0.6-1.2,0.6c-0.9,0-1.6-0.8-1.6-1.7c0-0.9,0.7-1.7,1.6-1.7  c0.6,0,1.1,0.3,1.3,0.8l6-2.3l0-0.1l-12.2-2c-0.1,0.3-0.4,0.6-0.6,0.7l3.8,11.7c0,0,0.1,0,0.1,0C26.7,63.8,27.1,64,27.4,64.3z"/><path d="M36.7,60.9l-8.9,4.2c0,0.1,0,0.2,0,0.3c0,0.3-0.1,0.6-0.2,0.8l12,10.4c0.1,0,0.1-0.1,0.2-0.1L36.7,60.9z"/><path d="M30.4,38.1c-0.2,0.7-0.8,1.1-1.5,1.1c-0.2,0-0.4,0-0.6-0.1L22.9,49l15.4-11.6L30.4,38.1z"/><path d="M29.5,56.7l6.7,1.5l-0.8-3.8L29.5,56.7C29.5,56.7,29.5,56.7,29.5,56.7z"/><path d="M55.9,79.6l-3.4-10.7l-5.4-0.1c-0.2,0.6-0.8,1.1-1.5,1.1c-0.9,0-1.6-0.8-1.6-1.7s0.7-1.7,1.6-1.7c0.3,0,0.6,0.1,0.8,0.2  l4.1-3.7l-0.2-0.6L39,59.8l-1.4,0.7l3.2,15.8c0.7,0.1,1.3,0.7,1.4,1.5l13.1,2.6C55.5,80.1,55.7,79.8,55.9,79.6z"/><path d="M76.7,36.9l-9.1,5c0,0.1,0,0.2,0,0.3c0,0.4-0.2,0.8-0.4,1.1l4.9,9.2c0.1,0,0.2,0,0.3,0L77,37.1C76.9,37,76.8,36.9,76.7,36.9  z"/><path d="M53.6,69l3.3,10.3c0,0,0,0,0,0c0.4,0,0.7,0.1,1,0.3l9.2-10.1c0-0.1-0.1-0.2-0.1-0.2L53.6,69z"/><path d="M63.6,64.3c0,0.9-0.7,1.7-1.6,1.7c-0.8,0-1.5-0.6-1.6-1.4l-8.1-1.8l-0.6,0.5l1.5,4.7l13.7,0.4c0.2-0.7,0.8-1.2,1.5-1.2  l3-11.1l-7.9,7.7C63.5,63.8,63.6,64,63.6,64.3z"/><path d="M49.3,53.3c0.5,0.3,0.8,0.8,0.8,1.5c0,0.5-0.2,1-0.6,1.3l1.7,5.4l0.9,0.2l4.5-4.1c-0.1-0.2-0.1-0.4-0.1-0.6  c0-0.9,0.7-1.7,1.6-1.7c0.1,0,0.2,0,0.2,0l6.5-12.1l-14.2,5.4L49.3,53.3z"/><polygon points="46.5,55.1 37.3,53.6 36.4,54 37.3,58.4 38.9,58.8 "/><path d="M33.1,48.9c0-0.9,0.7-1.7,1.6-1.7c0.1,0,0.2,0,0.3,0l4.5-8.8c-0.2-0.1-0.3-0.1-0.5-0.2L23.1,50.1c0,0.1,0,0.1,0,0.2L35,52.2  l-0.3-1.7C33.8,50.6,33.1,49.8,33.1,48.9z"/><path d="M47.1,67.4c0.1,0.1,0.1,0.2,0.1,0.4l5,0.1L50.9,64L47.1,67.4z"/><path d="M49.7,47.9l2.1-7.7c-0.3-0.2-0.5-0.5-0.7-0.9l-10-1.6c-0.1,0.2-0.4,0.5-0.6,0.6l-4.8,9.4c0.3,0.3,0.4,0.7,0.4,1.2  c0,0.6-0.3,1.1-0.7,1.4l0.4,2.2l1.2,0.2L49.7,47.9z"/><path d="M48.3,53.1l1.1-4l-10.2,3.9l7.8,1.3C47.2,53.6,47.7,53.2,48.3,53.1z"/><path d="M63.2,29.4l3.3,11.2c0.2,0.1,0.5,0.2,0.7,0.4l9.1-5c0-0.1,0-0.2,0-0.3c0-0.1,0-0.1,0-0.2l-12.9-6.3  C63.4,29.2,63.3,29.3,63.2,29.4z"/><path d="M47.5,25.2c-0.1,0-0.1,0-0.2,0l-5.2,10.2l18.5-7.2c0,0,0,0,0,0c0,0,0-0.1,0-0.1l-11.7-3.8C48.6,24.8,48.1,25.2,47.5,25.2z"/><path d="M38.3,36.4c0.2-0.8,0.8-1.3,1.6-1.3c0.4,0,0.8,0.2,1,0.4l5.5-10.8c0,0,0,0,0,0L30.4,37c0,0,0,0.1,0,0.2L38.3,36.4z"/><path d="M47.3,55.9l-6.8,3.2l9.5,2.1l-1.5-4.8c0,0,0,0-0.1,0C48,56.5,47.6,56.2,47.3,55.9z"/><path d="M65.6,43.8l-6.4,12c0.3,0.3,0.5,0.7,0.5,1.2c0,0.9-0.7,1.7-1.6,1.7c-0.3,0-0.6-0.1-0.9-0.3l-3.9,3.5l7.3,1.6  c0.3-0.6,0.8-1,1.4-1c0.3,0,0.6,0.1,0.9,0.3l8.2-8c-0.1-0.2-0.2-0.5-0.2-0.7c0-0.4,0.2-0.8,0.4-1.1l-4.9-9.2c-0.1,0-0.2,0-0.3,0  C65.9,43.9,65.8,43.8,65.6,43.8z"/><path d="M51.1,38.2c0.2-0.7,0.8-1.3,1.5-1.3c0.9,0,1.6,0.8,1.6,1.7c0,0.9-0.6,1.6-1.5,1.7l-1.9,7.1l13.6-5.2c0,0,0,0,0-0.1  c0-0.7,0.4-1.3,1-1.6l-3.2-10.8c0,0-0.1,0-0.1,0c-0.5,0-1-0.3-1.3-0.7l-19.4,7.6c0,0,0,0,0,0L51.1,38.2z"/><path d="M49.9,9C28.1,9,10.5,27.7,10.5,50.7c0,23,17.6,41.7,39.4,41.7s39.4-18.7,39.4-41.7C89.3,27.7,71.6,9,49.9,9z M77.9,34  c0.9,0,1.6,0.8,1.6,1.7c0,0.9-0.7,1.7-1.6,1.7l-4.5,15.4c0.4,0.3,0.7,0.8,0.7,1.4c0,0.9-0.7,1.7-1.6,1.7c0,0,0,0-0.1,0l-3,11.5  c0.4,0.3,0.7,0.8,0.7,1.4c0,0.9-0.7,1.7-1.6,1.7c-0.3,0-0.5-0.1-0.7-0.2l-9.4,10.2c0,0.2,0.1,0.3,0.1,0.5c0,0.9-0.7,1.7-1.6,1.7  c-0.7,0-1.3-0.5-1.5-1.2l-13.3-2.7c-0.3,0.5-0.8,0.9-1.4,0.9c-0.9,0-1.6-0.8-1.6-1.7c0-0.2,0-0.3,0.1-0.5L27,67  c-0.2,0.1-0.4,0.2-0.7,0.2c-0.9,0-1.6-0.8-1.6-1.7c0-0.5,0.2-1,0.5-1.3l-3.8-12c-0.8-0.1-1.4-0.8-1.4-1.7c0-0.9,0.7-1.7,1.6-1.7  c0.1,0,0.2,0,0.2,0l5.7-10.4c-0.2-0.3-0.3-0.6-0.3-0.9c0-0.9,0.7-1.7,1.6-1.7c0.3,0,0.6,0.1,0.9,0.3l16.1-12.4c0-0.1,0-0.2,0-0.3  c0-0.9,0.7-1.7,1.6-1.7c0.8,0,1.5,0.6,1.6,1.4L60.9,27c0.3-0.4,0.7-0.7,1.3-0.7c0.9,0,1.6,0.8,1.6,1.7c0,0,0,0.1,0,0.1l12.9,6.4  C77,34.2,77.4,34,77.9,34z"/><path class="st1" d="M41.5,36.7L41.5,36.7L41.5,36.7C41.5,36.7,41.5,36.7,41.5,36.7z"/><path class="st1" d="M29.5,56.6L29.5,56.6L29.5,56.6C29.5,56.7,29.5,56.7,29.5,56.6z"/></svg>
